<svg width="108" height="39" viewBox="0 0 108 39" fill="none" xmlns="http://www.w3.org/2000/svg">
<path d="M2.21631 30.072V13.272H8.50431C9.92831 13.272 11.1523 13.504 12.1763 13.968C13.2003 14.416 13.9843 15.072 14.5283 15.936C15.0883 16.784 15.3683 17.816 15.3683 19.032C15.3683 20.216 15.0883 21.24 14.5283 22.104C13.9843 22.952 13.2003 23.608 12.1763 24.072C11.1523 24.52 9.92831 24.744 8.50431 24.744H3.20031L3.99231 23.928V30.072H2.21631ZM13.6883 30.072L9.36831 23.976H11.2883L15.6323 30.072H13.6883ZM3.99231 24.072L3.20031 23.232H8.45631C10.1363 23.232 11.4083 22.864 12.2723 22.128C13.1523 21.392 13.5923 20.36 13.5923 19.032C13.5923 17.688 13.1523 16.648 12.2723 15.912C11.4083 15.176 10.1363 14.808 8.45631 14.808H3.20031L3.99231 13.968V24.072Z" fill="#8C6D51"/>
<path d="M16.8721 30.072L24.5521 13.272H26.3041L33.9841 30.072H32.1121L25.0561 14.304H25.7761L18.7201 30.072H16.8721ZM19.8961 25.584L20.4241 24.144H30.1921L30.7201 25.584H19.8961Z" fill="#8C6D51"/>
<path d="M38.3472 21.408H47.2272V22.944H38.3472V21.408ZM38.5392 30.072H36.7632V13.272H48.2832V14.808H38.5392V30.072Z" fill="#8C6D51"/>
<path d="M53.5347 21.408H62.4147V22.944H53.5347V21.408ZM53.7267 30.072H51.9507V13.272H63.4707V14.808H53.7267V30.072Z" fill="#8C6D51"/>
<path d="M67.1382 30.072V13.272H68.9142V30.072H67.1382Z" fill="#8C6D51"/>
<path d="M74.3804 30.072V13.272H75.8444L87.4364 27.864H86.6684V13.272H88.4204V30.072H86.9564L75.3884 15.48H76.1564V30.072H74.3804Z" fill="#8C6D51"/>
<path d="M95.4878 20.784H104.368V22.296H95.4878V20.784ZM95.6798 28.536H105.784V30.072H93.9038V13.272H105.424V14.808H95.6798V28.536ZM98.1278 11.904L101.416 8.92798H103.696L99.8078 11.904H98.1278Z" fill="#8C6D51"/>
</svg>
