<svg width="162" height="44" viewBox="0 0 162 44" fill="none" xmlns="http://www.w3.org/2000/svg">
<path d="M3.32446 37.858V12.658H12.7565C14.8925 12.658 16.7285 13.006 18.2645 13.702C19.8005 14.374 20.9765 15.358 21.7925 16.654C22.6325 17.926 23.0525 19.474 23.0525 21.298C23.0525 23.074 22.6325 24.61 21.7925 25.906C20.9765 27.178 19.8005 28.162 18.2645 28.858C16.7285 29.53 14.8925 29.866 12.7565 29.866H4.80046L5.98846 28.642V37.858H3.32446ZM20.5325 37.858L14.0525 28.714H16.9325L23.4485 37.858H20.5325ZM5.98846 28.858L4.80046 27.598H12.6845C15.2045 27.598 17.1125 27.046 18.4085 25.942C19.7285 24.838 20.3885 23.29 20.3885 21.298C20.3885 19.282 19.7285 17.722 18.4085 16.618C17.1125 15.514 15.2045 14.962 12.6845 14.962H4.80046L5.98846 13.702V28.858Z" fill="#22333B"/>
<path d="M25.3081 37.858L36.8281 12.658H39.4561L50.9761 37.858H48.1681L37.5841 14.206H38.6641L28.0801 37.858H25.3081ZM29.8441 31.126L30.6361 28.966H45.2881L46.0801 31.126H29.8441Z" fill="#22333B"/>
<path d="M57.5208 24.862H70.8408V27.166H57.5208V24.862ZM57.8088 37.858H55.1448V12.658H72.4248V14.962H57.8088V37.858Z" fill="#22333B"/>
<path d="M80.302 24.862H93.622V27.166H80.302V24.862ZM80.59 37.858H77.926V12.658H95.206V14.962H80.59V37.858Z" fill="#22333B"/>
<path d="M100.707 37.858V12.658H103.371V37.858H100.707Z" fill="#22333B"/>
<path d="M111.571 37.858V12.658H113.767L131.155 34.546H130.003V12.658H132.631V37.858H130.435L113.083 15.97H114.235V37.858H111.571Z" fill="#22333B"/>
<path d="M143.232 23.926H156.552V26.194H143.232V23.926ZM143.52 35.554H158.676V37.858H140.856V12.658H158.136V14.962H143.52V35.554ZM147.192 10.606L152.124 6.14203H155.544L149.712 10.606H147.192Z" fill="#22333B"/>
</svg>
