<svg width="40" height="40" viewBox="0 0 40 40" fill="none" xmlns="http://www.w3.org/2000/svg">
<path d="M19.665 3C10.4611 3 3 10.4611 3 19.665C3 28.8689 10.4611 36.33 19.665 36.33C28.8689 36.33 36.33 28.8689 36.33 19.665C36.33 10.4611 28.8689 3 19.665 3ZM26.0741 21.8019C26.0741 21.8019 27.5479 23.2567 27.9107 23.9319C27.9211 23.947 27.9275 23.9586 27.9298 23.9667C28.0768 24.2132 28.1132 24.4082 28.0392 24.5517C27.9176 24.7912 27.501 24.9093 27.3587 24.9197H24.7548C24.5742 24.9197 24.1958 24.8728 23.7375 24.5569C23.3851 24.3104 23.0379 23.9059 22.6994 23.5118C22.1943 22.9251 21.7568 22.4182 21.3159 22.4182C21.2599 22.418 21.2042 22.4267 21.151 22.4442C20.8177 22.5519 20.3906 23.0275 20.3906 24.2947C20.3906 24.6905 20.0782 24.9179 19.8577 24.9179H18.6651C18.2589 24.9179 16.1428 24.7756 14.268 22.7984C11.9731 20.3767 9.90729 15.5196 9.88994 15.4744C9.75974 15.1602 10.0288 14.9919 10.3222 14.9919H12.9521C13.3028 14.9919 13.4174 15.2054 13.4972 15.3946C13.591 15.6151 13.9347 16.4917 14.4988 17.4777C15.4137 19.0852 15.9744 19.7379 16.424 19.7379C16.5083 19.7369 16.5911 19.7155 16.6653 19.6754C17.252 19.3491 17.1427 17.2573 17.1166 16.8233C17.1166 16.7417 17.1149 15.8876 16.8146 15.4779C16.5993 15.1811 16.2331 15.0682 16.0109 15.0266C16.1008 14.9025 16.2193 14.8018 16.3563 14.7332C16.759 14.5318 17.4847 14.5023 18.2051 14.5023H18.6061C19.3873 14.5127 19.5886 14.5631 19.8716 14.6343C20.4444 14.7714 20.4566 15.1411 20.4062 16.4066C20.3906 16.766 20.375 17.1722 20.375 17.6513L20.3698 17.9846C20.3524 18.6286 20.3316 19.3595 20.7864 19.6598C20.8451 19.6985 20.9141 19.7184 20.9843 19.7171C21.1423 19.7171 21.6179 19.7171 22.906 17.5072C23.3018 16.7952 23.6469 16.0562 23.9389 15.2956C23.9649 15.2505 24.0413 15.1116 24.1316 15.0578C24.1989 15.0258 24.2723 15.0087 24.3468 15.0075H27.4385C27.7753 15.0075 28.0062 15.0578 28.0496 15.188C28.126 15.3946 28.0357 16.0247 26.6244 17.936L25.9942 18.7675C24.7148 20.4444 24.7148 20.5295 26.0741 21.8019Z" fill="#22333B"/>
</svg>
